<svg width="60" height="59" viewBox="0 0 60 59" fill="none" xmlns="http://www.w3.org/2000/svg">
<path d="M35.4 2.5H24.6C15.7461 2.5 11.3191 2.5 8.18106 4.69731C7.02006 5.51023 6.01023 6.52006 5.19731 7.68106C3 10.8191 3 15.2461 3 24.1C3 32.9538 3 37.3808 5.19731 40.519C6.01023 41.68 7.02006 42.6898 8.18106 43.5027C11.3191 45.7 15.7461 45.7 24.6 45.7H35.4C44.2538 45.7 48.6808 45.7 51.819 43.5027C52.98 42.6898 53.9898 41.68 54.8027 40.519C57 37.3808 57 32.9538 57 24.1C57 15.2461 57 10.8191 54.8027 7.68106C53.9898 6.52006 52.98 5.51023 51.819 4.69731C48.6808 2.5 44.2538 2.5 35.4 2.5Z" stroke="#EB5757" stroke-width="5" stroke-linecap="round"/>
<path d="M36.75 56.5L35.8981 55.369C33.9779 52.8196 33.5016 48.9249 34.7164 45.7M23.25 56.5L24.1019 55.369C26.0221 52.8196 26.4984 48.9249 25.2836 45.7" stroke="#EB5757" stroke-width="5" stroke-linecap="round"/>
<path d="M16.5 56.5H43.5" stroke="#EB5757" stroke-width="5" stroke-linecap="round"/>
<path d="M19.2 34.9C24.1639 27.8924 35.7208 27.5101 40.8 34.9M35.4 18.7C35.4 21.6824 32.9824 24.1 30 24.1C27.0176 24.1 24.6 21.6824 24.6 18.7C24.6 15.7177 27.0176 13.3 30 13.3C32.9824 13.3 35.4 15.7177 35.4 18.7Z" stroke="#EB5757" stroke-width="5" stroke-linecap="round"/>
</svg>
